<svg class="" width="684px" height="120px" x="0px" y="0px" viewBox="0 0 684 120" xmlns="http://www.w3.org/2000/svg" version="1.1" style="transform: translate(0,0)"><rect x="0" y="0" width="684" height="120" style="fill:transparent;"></rect><g transform="translate(10, 10)" style="fill:#000000;"><rect x="0" y="0" width="4" height="100"></rect><rect x="6" y="0" width="2" height="100"></rect><rect x="12" y="0" width="2" height="100"></rect><rect x="22" y="0" width="2" height="100"></rect><rect x="28" y="0" width="4" height="100"></rect><rect x="40" y="0" width="2" height="100"></rect><rect x="44" y="0" width="2" height="100"></rect><rect x="50" y="0" width="8" height="100"></rect><rect x="60" y="0" width="2" height="100"></rect><rect x="66" y="0" width="2" height="100"></rect><rect x="72" y="0" width="8" height="100"></rect><rect x="82" y="0" width="2" height="100"></rect><rect x="88" y="0" width="2" height="100"></rect><rect x="92" y="0" width="2" height="100"></rect><rect x="98" y="0" width="8" height="100"></rect><rect x="110" y="0" width="2" height="100"></rect><rect x="114" y="0" width="8" height="100"></rect><rect x="126" y="0" width="2" height="100"></rect><rect x="132" y="0" width="6" height="100"></rect><rect x="142" y="0" width="2" height="100"></rect><rect x="148" y="0" width="4" height="100"></rect><rect x="154" y="0" width="2" height="100"></rect><rect x="158" y="0" width="6" height="100"></rect><rect x="168" y="0" width="4" height="100"></rect><rect x="176" y="0" width="2" height="100"></rect><rect x="180" y="0" width="6" height="100"></rect><rect x="190" y="0" width="4" height="100"></rect><rect x="198" y="0" width="4" height="100"></rect><rect x="210" y="0" width="2" height="100"></rect><rect x="216" y="0" width="2" height="100"></rect><rect x="220" y="0" width="2" height="100"></rect><rect x="226" y="0" width="8" height="100"></rect><rect x="238" y="0" width="2" height="100"></rect><rect x="242" y="0" width="2" height="100"></rect><rect x="248" y="0" width="4" height="100"></rect><rect x="254" y="0" width="2" height="100"></rect><rect x="264" y="0" width="2" height="100"></rect><rect x="268" y="0" width="4" height="100"></rect><rect x="276" y="0" width="2" height="100"></rect><rect x="286" y="0" width="2" height="100"></rect><rect x="292" y="0" width="8" height="100"></rect><rect x="302" y="0" width="2" height="100"></rect><rect x="308" y="0" width="2" height="100"></rect><rect x="314" y="0" width="2" height="100"></rect><rect x="320" y="0" width="8" height="100"></rect><rect x="330" y="0" width="2" height="100"></rect><rect x="334" y="0" width="4" height="100"></rect><rect x="342" y="0" width="2" height="100"></rect><rect x="352" y="0" width="2" height="100"></rect><rect x="358" y="0" width="4" height="100"></rect><rect x="364" y="0" width="2" height="100"></rect><rect x="374" y="0" width="2" height="100"></rect><rect x="380" y="0" width="4" height="100"></rect><rect x="388" y="0" width="6" height="100"></rect><rect x="396" y="0" width="2" height="100"></rect><rect x="402" y="0" width="8" height="100"></rect><rect x="412" y="0" width="2" height="100"></rect><rect x="418" y="0" width="2" height="100"></rect><rect x="422" y="0" width="4" height="100"></rect><rect x="430" y="0" width="2" height="100"></rect><rect x="440" y="0" width="2" height="100"></rect><rect x="444" y="0" width="4" height="100"></rect><rect x="452" y="0" width="2" height="100"></rect><rect x="462" y="0" width="2" height="100"></rect><rect x="468" y="0" width="2" height="100"></rect><rect x="474" y="0" width="8" height="100"></rect><rect x="484" y="0" width="2" height="100"></rect><rect x="490" y="0" width="8" height="100"></rect><rect x="502" y="0" width="2" height="100"></rect><rect x="506" y="0" width="2" height="100"></rect><rect x="512" y="0" width="8" height="100"></rect><rect x="522" y="0" width="2" height="100"></rect><rect x="528" y="0" width="2" height="100"></rect><rect x="534" y="0" width="4" height="100"></rect><rect x="542" y="0" width="6" height="100"></rect><rect x="550" y="0" width="2" height="100"></rect><rect x="560" y="0" width="2" height="100"></rect><rect x="564" y="0" width="4" height="100"></rect><rect x="572" y="0" width="2" height="100"></rect><rect x="580" y="0" width="8" height="100"></rect><rect x="590" y="0" width="2" height="100"></rect><rect x="594" y="0" width="8" height="100"></rect><rect x="604" y="0" width="6" height="100"></rect><rect x="612" y="0" width="2" height="100"></rect><rect x="616" y="0" width="6" height="100"></rect><rect x="626" y="0" width="4" height="100"></rect><rect x="632" y="0" width="2" height="100"></rect><rect x="638" y="0" width="4" height="100"></rect><rect x="648" y="0" width="6" height="100"></rect><rect x="656" y="0" width="2" height="100"></rect><rect x="660" y="0" width="4" height="100"></rect></g></svg>